# xmcd
#
# Track frame offsets:
#	150
#	28795
#	52282
#	67092
#	86777
#	111125
#	138502
#	168300
#	190632
#	207505
#	221282
#
# Disc length: 3155 seconds
# Revision: 4
# Processed by: cddbd v1.5.2PL0 Copyright (c) Steve Scherf et al.
# Submitted via: dBpowerAMP V12.0
#
DISCID=a70c510b,b90c560b
DTITLE=Jimmy Witherspoon and Robben Ford - Live at the Notodden Blues Festival [dBP-LITE-FLAC@]
DYEAR=1992
DGENRE=Blues
TTITLE0=Doodlin'
TTITLE1=Going down slow
TTITLE2=Some of my best friends
TTITLE3=Outskirts of town
TTITLE4=See see rider
TTITLE5=Pretty woman
TTITLE6=Ain't nobody's business
TTITLE7=Patche patche
TTITLE8=Wonderful world
TTITLE9=Walkin' by myself
TTITLE10=Big legged woman
EXTD=
EXTT0=
EXTT1=
EXTT2=
EXTT3=
EXTT4=
EXTT5=
EXTT6=
EXTT7=
EXTT8=
EXTT9=
EXTT10=
PLAYORDER=
